<?xml version="1.0" encoding="utf-8"?>
<svg xmlns="http://www.w3.org/2000/svg">
<symbol id="barchart-primary-blue-intense"><path fill="#009FE3" d="M4 13.529c0 .275-.225.5-.5.5h-3a.501.501 0 0 1-.5-.5v-4.25c0-.274.225-.5.5-.5h3c.275 0 .5.226.5.5v4.25zm6.002 0c0 .275-.225.5-.5.5H6.5a.501.501 0 0 1-.5-.5v-13c0-.275.225-.5.5-.5h3.002c.275 0 .5.225.5.5v13zm6 0c0 .275-.225.5-.5.5h-3a.501.501 0 0 1-.5-.5v-9.5c0-.275.225-.5.5-.5h3c.275 0 .5.225.5.5v9.5z"/>
</symbol>
<symbol id="barchart-white"><path fill="#FFF" d="M4 13.529c0 .275-.225.5-.5.5h-3a.501.501 0 0 1-.5-.5v-4.25c0-.274.225-.5.5-.5h3c.275 0 .5.226.5.5v4.25zm6.002 0c0 .275-.225.5-.5.5H6.5a.501.501 0 0 1-.5-.5v-13c0-.275.225-.5.5-.5h3.002c.275 0 .5.225.5.5v13zm6 0c0 .275-.225.5-.5.5h-3a.501.501 0 0 1-.5-.5v-9.5c0-.275.225-.5.5-.5h3c.275 0 .5.225.5.5v9.5z"/>
</symbol>
<symbol id="caret-down"><path fill="#333" d="M3.8 5.4c-.165-.22-.075-.4.2-.4h8.002c.275 0 .365.18.199.4l-3.898 5.2c-.166.221-.436.221-.6 0L3.8 5.4z"/>
</symbol>
<symbol id="chevron-disc-down-white"><path fill="#FFF" d="M8.002 1a7 7 0 1 0 0 14 7 7 0 0 0 0-14zm4.459 6.336l-4.105 4.105a.513.513 0 0 1-.708 0L3.541 7.336a.502.502 0 0 1 0-.707l.977-.978a.502.502 0 0 1 .707 0l2.422 2.421a.502.502 0 0 0 .708 0l2.422-2.42a.502.502 0 0 1 .707 0l.977.977a.504.504 0 0 1 0 .707z"/>
</symbol>
<symbol id="chevron-disc-left-gray-light"><path fill="#BFBFBF" d="M8.002 1a7 7 0 1 0 0 14 7 7 0 1 0 0-14zm2.348 10.482l-.977.977a.504.504 0 0 1-.707 0L4.558 8.354a.503.503 0 0 1 0-.708l4.108-4.105a.502.502 0 0 1 .707 0l.979.977a.508.508 0 0 1 0 .707L7.93 7.646a.502.502 0 0 0 0 .708l2.419 2.421a.5.5 0 0 1 .001.707z"/>
</symbol>
<symbol id="chevron-disc-right-gray-light"><path fill="#BFBFBF" d="M8.002 1A7.001 7.001 0 1 0 8 15.002 7.001 7.001 0 0 0 8.002 1zm3.441 7.357l-4.106 4.104a.509.509 0 0 1-.708 0l-.978-.979a.502.502 0 0 1 0-.707l2.423-2.421a.502.502 0 0 0 0-.708L5.652 5.225a.502.502 0 0 1 0-.707l.977-.977a.503.503 0 0 1 .708 0l4.106 4.108a.509.509 0 0 1 0 .708z"/>
</symbol>
<symbol id="chevron-disc-right-white"><path fill="#FFF" d="M8.002 1A7.001 7.001 0 1 0 8 15.002 7.001 7.001 0 0 0 8.002 1zm3.441 7.357l-4.106 4.104a.509.509 0 0 1-.708 0l-.978-.979a.502.502 0 0 1 0-.707l2.423-2.421a.502.502 0 0 0 0-.708L5.652 5.225a.502.502 0 0 1 0-.707l.977-.977a.503.503 0 0 1 .708 0l4.106 4.108a.509.509 0 0 1 0 .708z"/>
</symbol>
<symbol id="chevron-disc-up-primary-blue-intense"><path fill="#009FE3" d="M8.002 1A7.001 7.001 0 1 0 8 15.002 7.001 7.001 0 0 0 8.002 1zm4.462 8.37l-.979.979a.51.51 0 0 1-.707 0L8.356 7.93a.503.503 0 0 0-.708 0l-2.423 2.417a.504.504 0 0 1-.707 0l-.977-.976a.502.502 0 0 1 0-.707l4.106-4.106a.503.503 0 0 1 .708 0l4.109 4.105a.51.51 0 0 1 0 .707z"/>
</symbol>
<symbol id="chevron-left-white"><path fill="#FFF" d="M7.951 7.645a.508.508 0 0 0 0 .71l3.258 3.29a.506.506 0 0 1-.002.709l-1.371 1.371a.507.507 0 0 1-.707 0L3.794 8.354a.503.503 0 0 1 0-.708l5.335-5.369a.501.501 0 0 1 .707-.001l1.371 1.371a.506.506 0 0 1 .002.709L7.951 7.645z"/>
</symbol>
<symbol id="chevron-left"><path fill="#0074bd" d="M7.951 7.645a.508.508 0 0 0 0 .71l3.258 3.29a.506.506 0 0 1-.002.709l-1.371 1.371a.507.507 0 0 1-.707 0L3.794 8.354a.503.503 0 0 1 0-.708l5.335-5.369a.501.501 0 0 1 .707-.001l1.371 1.371a.506.506 0 0 1 .002.709L7.951 7.645z"/>
</symbol>
<symbol id="chevron-right-white"><path fill="#FFF" d="M8.053 8.355a.509.509 0 0 0 0-.711l-3.26-3.289a.506.506 0 0 1 .002-.709l1.371-1.371a.501.501 0 0 1 .706.001l5.335 5.369a.502.502 0 0 1 0 .708l-5.335 5.37a.506.506 0 0 1-.706.002l-1.371-1.371a.506.506 0 0 1-.002-.709l3.26-3.29z"/>
</symbol>
<symbol id="chevron-right"><path fill="#0074bd" d="M8.053 8.355a.509.509 0 0 0 0-.711l-3.26-3.289a.506.506 0 0 1 .002-.709l1.371-1.371a.501.501 0 0 1 .706.001l5.335 5.369a.502.502 0 0 1 0 .708l-5.335 5.37a.506.506 0 0 1-.706.002l-1.371-1.371a.506.506 0 0 1-.002-.709l3.26-3.29z"/>
</symbol>
<symbol id="error"><path d="M8.002 1a7 7 0 1 0 0 14 7 7 0 0 0 0-14zm4.025 9.284c.062.063.1.149.1.239a.34.34 0 0 1-.1.24l-1.262 1.262a.34.34 0 0 1-.48 0L8.002 9.742l-2.286 2.283a.34.34 0 0 1-.48 0l-1.261-1.262a.336.336 0 0 1 0-.478L6.258 8 3.975 5.716a.34.34 0 0 1 0-.48l1.262-1.262a.34.34 0 0 1 .48 0l2.285 2.284 2.283-2.284a.34.34 0 0 1 .48 0l1.262 1.262c.062.063.1.149.1.24a.345.345 0 0 1-.1.24L9.744 8l2.283 2.284z"/>
</symbol>
<symbol id="ex"><path fill="#fff" d="M3.51 13.925a.501.501 0 0 0 .706.001l3.432-3.431a.503.503 0 0 1 .708 0l3.432 3.431a.502.502 0 0 0 .707-.001l1.405-1.417a.51.51 0 0 0-.002-.709l-3.397-3.4a.509.509 0 0 1-.002-.708l3.401-3.43a.514.514 0 0 0 0-.709l-1.407-1.418a.501.501 0 0 0-.707-.001l-3.43 3.431a.503.503 0 0 1-.708 0L4.216 2.133a.5.5 0 0 0-.706.001L2.103 3.551a.506.506 0 0 0 0 .71L5.506 7.69a.504.504 0 0 1-.001.708l-3.4 3.399a.505.505 0 0 0-.001.709l1.406 1.419z"/>
</symbol>
<symbol id="field_help" viewBox="0 0 24 24"><path d="M0 0h24v24H0z" fill="none"/><path d="M12 2C6.48 2 2 6.48 2 12s4.48 10 10 10 10-4.48 10-10S17.52 2 12 2zm1 17h-2v-2h2v2zm2.07-7.75l-.9.92C13.45 12.9 13 13.5 13 15h-2v-.5c0-1.1.45-2.1 1.17-2.83l1.24-1.26c.37-.36.59-.86.59-1.41 0-1.1-.9-2-2-2s-2 .9-2 2H8c0-2.21 1.79-4 4-4s4 1.79 4 4c0 .88-.36 1.68-.93 2.25z"/>
</symbol>
<symbol id="file-primary-blue-intense"><path fill="#009FE3" d="M12.502 7h-5A.503.503 0 0 1 7 6.5v-5c0-.275-.225-.5-.5-.5h-3c-.275 0-.5.225-.5.5v12.029c0 .275.225.5.5.5h9.002c.275 0 .5-.225.5-.5V7.5c0-.275-.225-.5-.5-.5zm-4-1h4c.275 0 .34-.159.146-.354L8.355 1.354c-.195-.195-.353-.129-.353.146v4c0 .275.225.5.5.5z"/>
</symbol>
<symbol id="file-white"><path fill="#FFF" d="M12.502 7h-5A.503.503 0 0 1 7 6.5v-5c0-.275-.225-.5-.5-.5h-3c-.275 0-.5.225-.5.5v12.029c0 .275.225.5.5.5h9.002c.275 0 .5-.225.5-.5V7.5c0-.275-.225-.5-.5-.5zm-4-1h4c.275 0 .34-.159.146-.354L8.355 1.354c-.195-.195-.353-.129-.353.146v4c0 .275.225.5.5.5z"/>
</symbol>
<symbol id="hamburger-gray-light"><path fill="#BFBFBF" d="M14.752 6H1.25C.56 6 0 6.56 0 7.25v.5C0 8.439.56 9 1.25 9h13.502c.689 0 1.25-.561 1.25-1.25v-.5c0-.69-.561-1.25-1.25-1.25zm0-6H1.25C.56 0 0 .56 0 1.25v.5C0 2.44.56 3 1.25 3h13.502c.689 0 1.25-.56 1.25-1.25v-.5c0-.69-.561-1.25-1.25-1.25zm0 12H1.25C.56 12 0 12.561 0 13.25v.5C0 14.439.56 15 1.25 15h13.502c.689 0 1.25-.561 1.25-1.25v-.5c0-.689-.561-1.25-1.25-1.25z"/>
</symbol>
<symbol id="hamburger-white"><path fill="#fff" d="M14.752 6H1.25C.56 6 0 6.56 0 7.25v.5C0 8.439.56 9 1.25 9h13.502c.689 0 1.25-.561 1.25-1.25v-.5c0-.69-.561-1.25-1.25-1.25zm0-6H1.25C.56 0 0 .56 0 1.25v.5C0 2.44.56 3 1.25 3h13.502c.689 0 1.25-.56 1.25-1.25v-.5c0-.69-.561-1.25-1.25-1.25zm0 12H1.25C.56 12 0 12.561 0 13.25v.5C0 14.439.56 15 1.25 15h13.502c.689 0 1.25-.561 1.25-1.25v-.5c0-.689-.561-1.25-1.25-1.25z"/>
</symbol>
<symbol id="line-dashed-left-color" viewBox="0 0 10 2"><style>.st0{fill:#00adef}</style><path class="st0" d="M6 2H0V0h6v2z"/>
</symbol>
<symbol id="line-dashed-left" viewBox="0 0 10 2"><style>.st0{fill:#dae0e3}</style><path class="st0" d="M6 2H0V0h6v2z"/>
</symbol>
<symbol id="line-dashed-right-color" viewBox="0 0 10 2"><style>.st0{fill:#00adef}</style><path class="st0" d="M10 2H4V0h6v2z"/>
</symbol>
<symbol id="line-dashed-right" viewBox="0 0 10 2"><style>.st0{fill:#dae0e3}</style><path class="st0" d="M10 2H4V0h6v2z"/>
</symbol>
<symbol id="move-primary-blue" viewBox="0 0 22 11"><title>Group 2</title><path d="M0 1.454h22m-22 8h22m-19-4h16" stroke-width="2" stroke="#009FE3" fill="none"/>
</symbol>
<symbol id="move" viewBox="0 0 22 11"><title>Group 2</title><path d="M0 1.454h22m-22 8h22m-19-4h16" stroke-width="2" stroke="#BFBFBF" fill="none" fill-rule="evenodd"/>
</symbol>
<symbol id="orgchart-primary-blue-intense"><path fill="#009fe3" d="M15.002 11.277V9.263c0-1.456-.824-2.25-2.25-2.25h-3.5a.25.25 0 0 1-.25-.25v-2.04a1.99 1.99 0 0 0 1-1.723A2 2 0 0 0 6 3c0 .738.405 1.376 1 1.722v2.042a.25.25 0 0 1-.25.25h-3.5C1.888 7.014 1 7.932 1 9.266v2.012c-.595.353-1 .984-1 1.729a2 2 0 0 0 4 0c0-.732-.405-1.377-1-1.729V9.266a.25.25 0 0 1 .25-.25h3.536c.118.018.214.11.214.234v2.027c-.595.347-1 .983-1 1.723a2.001 2.001 0 0 0 4.002 0c0-.738-.404-1.376-1-1.723V9.25c0-.124.098-.216.215-.234h3.535a.25.25 0 0 1 .25.25v2.012a2 2 0 0 0-1 1.729 2 2 0 0 0 4 0c0-.745-.404-1.384-1-1.73z"/>
</symbol>
<symbol id="orgchart-white"><path fill="#FFF" d="M15.002 11.277V9.263c0-1.456-.824-2.25-2.25-2.25h-3.5a.25.25 0 0 1-.25-.25v-2.04a1.99 1.99 0 0 0 1-1.723A2 2 0 0 0 6 3c0 .738.405 1.376 1 1.722v2.042a.25.25 0 0 1-.25.25h-3.5C1.888 7.014 1 7.932 1 9.266v2.012c-.595.353-1 .984-1 1.729a2 2 0 0 0 4 0c0-.732-.405-1.377-1-1.729V9.266a.25.25 0 0 1 .25-.25h3.536c.118.018.214.11.214.234v2.027c-.595.347-1 .983-1 1.723a2.001 2.001 0 0 0 4.002 0c0-.738-.404-1.376-1-1.723V9.25c0-.124.098-.216.215-.234h3.535a.25.25 0 0 1 .25.25v2.012a2 2 0 0 0-1 1.729 2 2 0 0 0 4 0c0-.745-.404-1.384-1-1.73z"/>
</symbol>
<symbol id="paintbrush-primary-blue-intense"><path fill="#009FE3" d="M8.184 7.928L6.279 9.911 2.741 7.475l4.714-4.713 2.623 3.183-1.894 1.983zM6.438.405c-.236-.416-.803-.649-1.346.083C4.833.837.365 5.252.182 5.471c-.182.218-.294.721.044.976.34.258 5.611 3.933 5.611 3.933l-.225.229c.7.729.816.854 1.046.863.75.016 2.035-1.457 2.578-.854.541.604 3.537 3.979 3.537 3.979.51.531 1.305.559 1.815.041.521-.521.541-1.311.025-1.848 0 0-2.742-2.635-3.904-3.619-.578-.479.869-2.051.854-2.839-.008-.238-.125-.361-.823-1.095l-.22.243c0 .003-3.846-4.659-4.082-5.075z"/>
</symbol>
<symbol id="paintbrush-white"><path fill="#FFF" d="M8.184 7.928L6.279 9.911 2.741 7.475l4.714-4.713 2.623 3.183-1.894 1.983zM6.438.405c-.236-.416-.803-.649-1.346.083C4.833.837.365 5.252.182 5.471c-.182.218-.294.721.044.976.34.258 5.611 3.933 5.611 3.933l-.225.229c.7.729.816.854 1.046.863.75.016 2.035-1.457 2.578-.854.541.604 3.537 3.979 3.537 3.979.51.531 1.305.559 1.815.041.521-.521.541-1.311.025-1.848 0 0-2.742-2.635-3.904-3.619-.578-.479.869-2.051.854-2.839-.008-.238-.125-.361-.823-1.095l-.22.243c0 .003-3.846-4.659-4.082-5.075z"/>
</symbol>
<symbol id="paste-color" viewBox="0 0 59.5 59.5"><style>.st0{fill:#00adef}</style><path class="st0" d="M55 18.3H41.2V9.1c0-2.5-2-4.6-4.6-4.6H27C26.1 1.8 23.6 0 20.6 0s-5.5 1.8-6.4 4.6H4.6C2 4.6 0 6.6 0 9.1v36.7c0 2.5 2 4.6 4.6 4.6h13.8V55c0 2.5 2 4.6 4.6 4.6h32c2.5 0 4.6-2 4.6-4.6V23c-.1-2.6-2.1-4.7-4.6-4.7zM20.6 4.6c1.4 0 2.3.9 2.3 2.3s-.9 2.3-2.3 2.3-2.3-.9-2.3-2.3.9-2.3 2.3-2.3zm-2.3 18.3v22.9H4.6V9.1h4.6V16H32V9.1h4.6v9.2H22.9c-2.5 0-4.6 2.1-4.6 4.6zm25.2 27.5h-16v-4.6h16v4.6zm6.8-9.2H27.5v-4.6h22.9c-.1.1-.1 4.6-.1 4.6zm0-9.1H27.5v-4.6h22.9c-.1 0-.1 4.6-.1 4.6z"/>
</symbol>
<symbol id="paste" viewBox="0 0 59.5 59.5"><style>.st0{fill:#dae0e2}</style><path class="st0" d="M55 18.3H41.2V9.1c0-2.5-2-4.6-4.6-4.6H27C26.1 1.8 23.6 0 20.6 0s-5.5 1.8-6.4 4.6H4.6C2 4.6 0 6.6 0 9.1v36.7c0 2.5 2 4.6 4.6 4.6h13.8V55c0 2.5 2 4.6 4.6 4.6h32c2.5 0 4.6-2 4.6-4.6V23c-.1-2.6-2.1-4.7-4.6-4.7zM20.6 4.6c1.4 0 2.3.9 2.3 2.3s-.9 2.3-2.3 2.3-2.3-.9-2.3-2.3.9-2.3 2.3-2.3zm-2.3 18.3v22.9H4.6V9.1h4.6V16H32V9.1h4.6v9.2H22.9c-2.5 0-4.6 2.1-4.6 4.6zm25.2 27.5h-16v-4.6h16v4.6zm6.8-9.2H27.5v-4.6h22.9c-.1.1-.1 4.6-.1 4.6zm0-9.1H27.5v-4.6h22.9c-.1 0-.1 4.6-.1 4.6z"/>
</symbol>
<symbol id="people-primary-blue-intense"><path fill="#009FE3" d="M6.722 11.291l.451-.17-.165-.32c-.536-1.039-.685-1.934-.761-2.672-.082-.808-.144-2.831 1.053-4.189.244-.278.493-.493.743-.675.012-.826-.135-1.766-.646-2.345-.618-.7-1.4-.787-1.4-.787L5.5.078l-.498.055S4.219.22 3.604.92c-.617.702-.717 1.948-.625 2.855.06.583.17 1.263.574 2.05.274.533.341.617.355 1.01.022.595.027 1.153-.671 1.538-.697.383-1.564.508-2.403 1.088-.596.41-.709 1.033-.78 1.459l-.051.41a.443.443 0 0 0 .448.498h5.012c.457-.24.89-.402 1.259-.537zm-1.658 3.805c.07-.427.184-1.05.78-1.46.838-.581 1.708-.706 2.404-1.089.699-.385.693-.943.672-1.537-.014-.393-.08-.477-.354-1.01-.406-.787-.515-1.467-.576-2.049-.093-.909.008-2.155.625-2.856.615-.7 1.398-.787 1.398-.787l.492-.055h.002l.496.055s.781.087 1.396.787c.615.701.72 1.947.623 2.855-.062.583-.172 1.262-.571 2.049-.271.533-.341.617-.354 1.01-.021.595-.062 1.22.637 1.604.697.385 1.604.527 2.438 1.104.923.641.822 1.783.822 1.783a.557.557 0 0 1-.542.5H5.461a.441.441 0 0 1-.448-.496l.051-.408z"/>
</symbol>
<symbol id="people-white"><path fill="#FFF" d="M6.722 11.291l.451-.17-.165-.32c-.536-1.039-.685-1.934-.761-2.672-.082-.808-.144-2.831 1.053-4.189.244-.278.493-.493.743-.675.012-.826-.135-1.766-.646-2.345-.618-.7-1.4-.787-1.4-.787L5.5.078l-.498.055S4.219.22 3.604.92c-.617.702-.717 1.948-.625 2.855.06.583.17 1.263.574 2.05.274.533.341.617.355 1.01.022.595.027 1.153-.671 1.538-.697.383-1.564.508-2.403 1.088-.596.41-.709 1.033-.78 1.459l-.051.41a.443.443 0 0 0 .448.498h5.012c.457-.24.89-.402 1.259-.537zm-1.658 3.805c.07-.427.184-1.05.78-1.46.838-.581 1.708-.706 2.404-1.089.699-.385.693-.943.672-1.537-.014-.393-.08-.477-.354-1.01-.406-.787-.515-1.467-.576-2.049-.093-.909.008-2.155.625-2.856.615-.7 1.398-.787 1.398-.787l.492-.055h.002l.496.055s.781.087 1.396.787c.615.701.72 1.947.623 2.855-.062.583-.172 1.262-.571 2.049-.271.533-.341.617-.354 1.01-.021.595-.062 1.22.637 1.604.697.385 1.604.527 2.438 1.104.923.641.822 1.783.822 1.783a.557.557 0 0 1-.542.5H5.461a.441.441 0 0 1-.448-.496l.051-.408z"/>
</symbol>
<symbol id="push-left-white"><path fill="#FFF" d="M2.5 2H.009v12.029H2.5a.5.5 0 0 0 .5-.5V2.5a.5.5 0 0 0-.5-.5zm12.002 4.029h-4a.501.501 0 0 1-.5-.5v-1c0-.275-.16-.341-.354-.146L6.354 7.675a.503.503 0 0 0 0 .708l3.294 3.293c.188.193.354.129.354-.146v-1c0-.271.227-.5.5-.5h4c.275 0 .5-.225.5-.5v-3a.502.502 0 0 0-.5-.501z"/>
</symbol>
<symbol id="push-right-white"><path fill="#FFF" d="M13.51 2a.5.5 0 0 0-.5.5v11.029c0 .275.225.5.5.5h2.492V2H13.51zM6.362 4.382c-.194-.194-.353-.128-.353.147v1c0 .275-.225.5-.5.5h-4c-.275 0-.5.225-.5.5v3c0 .271.225.5.5.5h4c.275 0 .5.225.5.5v1c0 .271.159.34.354.146l3.295-3.293a.505.505 0 0 0 0-.708L6.362 4.382z"/>
</symbol>
<symbol id="push-up-white"><path fill="#FFF" d="M1.986.019V2.51a.5.5 0 0 0 .5.5h11.032a.5.5 0 0 0 .5-.5V.019H1.986zm6.356 6.315a.503.503 0 0 0-.708 0L4.34 9.627c-.194.195-.129.353.146.353h1c.275 0 .5.227.5.5v4.02c0 .275.225.5.5.5h3.002c.271 0 .5-.225.5-.5v-4.02c0-.274.225-.5.5-.5h1c.271 0 .34-.158.145-.354L8.342 6.334z"/>
</symbol>
<symbol id="puzzlepiece-primary-blue-intense"><path fill="#009FE3" d="M11.002 11v2.529c0 .275-.225.471-.5.471h-3c-.827 0-1.112-.754-.604-1.316l.81-.725a1.417 1.417 0 0 0-.097-2.01c-.383-.344-1.027-.728-2.111-.728s-1.727.386-2.109.731a1.423 1.423 0 0 0-.097 2.015l.808.717C4.611 13.246 4.325 14 3.5 14h-3c-.276 0-.5-.193-.5-.471V4.5A.5.5 0 0 1 .5 4h3c.825 0 1.111-.768.602-1.332l-.808-.73a1.42 1.42 0 0 1 .097-2.014C3.773-.42 4.416-.807 5.5-.807s1.728.387 2.111.731c.608.548.606 1.45.097 2.014l-.81.73C6.389 3.232 6.675 4 7.501 4h3c.274 0 .5.224.5.5V7c0 .825.642 1.111 1.233.602l.771-.808c.599-.51 1.547-.513 2.127.097.364.383.772 1.025.772 2.109s-.408 1.727-.771 2.109c-.58.604-1.529.604-2.127.097l-.77-.808c-.593-.509-1.234-.223-1.234.602z"/>
</symbol>
<symbol id="puzzlepiece-white"><path fill="#FFF" d="M11.002 11v2.529c0 .275-.225.471-.5.471h-3c-.827 0-1.112-.754-.604-1.316l.81-.725a1.417 1.417 0 0 0-.097-2.01c-.383-.344-1.027-.728-2.111-.728s-1.727.386-2.109.731a1.423 1.423 0 0 0-.097 2.015l.808.717C4.611 13.246 4.325 14 3.5 14h-3c-.276 0-.5-.193-.5-.471V4.5A.5.5 0 0 1 .5 4h3c.825 0 1.111-.768.602-1.332l-.808-.73a1.42 1.42 0 0 1 .097-2.014C3.773-.42 4.416-.807 5.5-.807s1.728.387 2.111.731c.608.548.606 1.45.097 2.014l-.81.73C6.389 3.232 6.675 4 7.501 4h3c.274 0 .5.224.5.5V7c0 .825.642 1.111 1.233.602l.771-.808c.599-.51 1.547-.513 2.127.097.364.383.772 1.025.772 2.109s-.408 1.727-.771 2.109c-.58.604-1.529.604-2.127.097l-.77-.808c-.593-.509-1.234-.223-1.234.602z"/>
</symbol>
<symbol id="questionmark-disc-gray-light"><path fill="#BFBFBF" d="M8.002 1a7 7 0 1 0 0 14 7 7 0 0 0 0-14zm3 5c0 .551-.16 1.085-.477 1.586l-.158.22c-.07.093-.189.241-.361.393a9.67 9.67 0 0 1-.545.447l-.203.189-.141.129-.096.17L9 9.369v.63H6.999v-.704c.026-.396.078-.73.204-.999a2.83 2.83 0 0 1 .439-.688l.225-.21-.01-.015.176-.14.137-.128c.186-.139.357-.277.516-.417l.148-.18A.948.948 0 0 0 9.002 6 1.001 1.001 0 0 0 7 6H5a3 3 0 0 1 6.002 0zm-1.75 6.619a.627.627 0 0 1-.625.625h-1.25a.627.627 0 0 1-.626-.625v-1.238c0-.344.281-.625.626-.625h1.25c.344 0 .625.281.625.625v1.238z"/>
</symbol>
<symbol id="questionmark-disc-primary-blue-intense"><path fill="#009FE3" d="M8.002 1a7 7 0 1 0 0 14 7 7 0 0 0 0-14zm3 5c0 .551-.16 1.085-.477 1.586l-.158.22c-.07.093-.189.241-.361.393a9.67 9.67 0 0 1-.545.447l-.203.189-.141.129-.096.17L9 9.369v.63H6.999v-.704c.026-.396.078-.73.204-.999a2.83 2.83 0 0 1 .439-.688l.225-.21-.01-.015.176-.14.137-.128c.186-.139.357-.277.516-.417l.148-.18A.948.948 0 0 0 9.002 6 1.001 1.001 0 0 0 7 6H5a3 3 0 0 1 6.002 0zm-1.75 6.619a.627.627 0 0 1-.625.625h-1.25a.627.627 0 0 1-.626-.625v-1.238c0-.344.281-.625.626-.625h1.25c.344 0 .625.281.625.625v1.238z"/>
</symbol>
<symbol id="questionmark-disc-white"><path fill="#FFF" d="M8.002 1a7 7 0 1 0 0 14 7 7 0 0 0 0-14zm3 5c0 .551-.16 1.085-.477 1.586l-.158.22c-.07.093-.189.241-.361.393a9.67 9.67 0 0 1-.545.447l-.203.189-.141.129-.096.17L9 9.369v.63H6.999v-.704c.026-.396.078-.73.204-.999a2.83 2.83 0 0 1 .439-.688l.225-.21-.01-.015.176-.14.137-.128c.186-.139.357-.277.516-.417l.148-.18A.948.948 0 0 0 9.002 6 1.001 1.001 0 0 0 7 6H5a3 3 0 0 1 6.002 0zm-1.75 6.619a.627.627 0 0 1-.625.625h-1.25a.627.627 0 0 1-.626-.625v-1.238c0-.344.281-.625.626-.625h1.25c.344 0 .625.281.625.625v1.238z"/>
</symbol>
<symbol id="required"><path fill="#E00" d="M0 7.562l1.114-3.438c2.565.906 4.43 1.688 5.59 2.35-.306-2.921-.467-4.93-.484-6.027h3.511c-.05 1.597-.234 3.6-.558 6.003 1.664-.838 3.566-1.613 5.714-2.325L16 7.562c-2.05.678-4.06 1.131-6.028 1.356.984.856 2.372 2.381 4.166 4.575l-2.906 2.059c-.935-1.274-2.041-3.009-3.316-5.206-1.194 2.275-2.244 4.013-3.147 5.206l-2.856-2.059c1.872-2.307 3.211-3.832 4.017-4.575A86.77 86.77 0 0 1 0 7.562"/>
</symbol>
<symbol id="settings-gears-white" viewBox="0 0 27 27"><title>Icons / Settings</title><path d="M3.278 14.665l-1.645-1.67a1.142 1.142 0 0 1-.072-1.484l1.04-1.285a1.159 1.159 0 0 1 1.474-.248l1.867 1.161a7.208 7.208 0 0 1 1.826-.947l.248-2.202c.062-.547.559-.99 1.108-.99h1.653c.55 0 1.052.444 1.12.99l.262 2.1c.71.212 1.375.53 1.978.938l1.726-1.103a1.142 1.142 0 0 1 1.466.238l1.04 1.285a1.159 1.159 0 0 1-.064 1.493l-1.433 1.49a7.55 7.55 0 0 1 .52 2.28l1.93.68c.518.184.838.768.715 1.303l-.372 1.61c-.124.537-.67.925-1.217.87l-2.007-.208a7.46 7.46 0 0 1-1.406 1.788l.698 1.965a1.142 1.142 0 0 1-.562 1.375l-1.486.725a1.159 1.159 0 0 1-1.44-.399l-1.163-1.782a7.201 7.201 0 0 1-2.115-.028l-1.17 1.84a1.142 1.142 0 0 1-1.43.404l-1.485-.724a1.159 1.159 0 0 1-.573-1.38l.735-2.15a7.464 7.464 0 0 1-1.237-1.62l-2.259.26a1.142 1.142 0 0 1-1.214-.857l-.372-1.611a1.159 1.159 0 0 1 .713-1.314l2.176-.797c.053-.696.2-1.366.427-1.996zm6.747 7.242c2.517 0 4.557-2.085 4.557-4.658 0-2.573-2.04-4.659-4.557-4.659-2.516 0-4.557 2.086-4.557 4.659s2.04 4.658 4.557 4.658zM18.64 3.833l-.468-.475a1.142 1.142 0 0 1-.078-1.49L17.987 2a1.16 1.16 0 0 1 1.482-.243l.502.313c.278-.2.585-.36.913-.474l.067-.597A1.142 1.142 0 0 1 22.061 0h-.171c.55 0 1.052.442 1.121.999l.069.546c.355.106.687.265.989.469l.435-.278a1.142 1.142 0 0 1 1.474.233l-.107-.132a1.16 1.16 0 0 1-.07 1.5l-.365.379c.142.355.232.739.26 1.14l.487.171c.523.185.848.765.723 1.306l.039-.167a1.16 1.16 0 0 1-1.226.869l-.499-.052a3.73 3.73 0 0 1-.703.894l.18.505c.186.523-.06 1.14-.56 1.384l.154-.075a1.16 1.16 0 0 1-1.446-.406l-.304-.466a3.6 3.6 0 0 1-1.057-.014l-.313.492a1.142 1.142 0 0 1-1.435.412l.153.074a1.16 1.16 0 0 1-.57-1.389l.203-.594a3.732 3.732 0 0 1-.619-.81l-.625.072a1.142 1.142 0 0 1-1.223-.856l.038.166a1.16 1.16 0 0 1 .721-1.318l.611-.223c.027-.349.1-.684.214-.998zm3.373 3.62c1.258 0 2.278-1.042 2.278-2.329 0-1.286-1.02-2.329-2.278-2.329-1.259 0-2.279 1.043-2.279 2.33 0 1.286 1.02 2.329 2.279 2.329z" fill="#FFF" fill-rule="evenodd"/>
</symbol>
<symbol id="twistie-down-primary-blue-darker"><path fill="#07364A" d="M2.611 5.393C2.441 5.177 2.527 5 2.802 5h10.397c.275 0 .361.177.191.393l-5.08 6.464c-.17.216-.452.216-.622 0L2.611 5.393z"/>
</symbol>
<symbol id="twistie-down-primary-blue-intense"><path fill="#009FE3" d="M2.611 5.393C2.441 5.177 2.527 5 2.802 5h10.397c.275 0 .361.177.191.393l-5.08 6.464c-.17.216-.452.216-.622 0L2.611 5.393z"/>
</symbol>
<symbol id="twistie-up-primary-blue-darker"><path fill="#07364A" d="M13.391 10.607c.17.216.084.393-.191.393H2.802c-.275 0-.361-.177-.191-.393l5.08-6.464c.17-.216.45-.216.62 0l5.08 6.464z"/>
</symbol>
<symbol id="twistie-up-primary-blue-intense"><path fill="#009FE3" d="M13.391 10.607c.17.216.084.393-.191.393H2.802c-.275 0-.361-.177-.191-.393l5.08-6.464c.17-.216.45-.216.62 0l5.08 6.464z"/>
</symbol>
<symbol id="wrench-primary-blue-intense"><path fill="#009FE3" d="M14.416 11.586l-.01-.008v-.001L8.75 5.921c.15-.449.252-.921.252-1.421C9.002 2.015 6.986 0 4.5 0c-.505 0-.981.102-1.434.255l2.431 2.431-.588 2.196-2.196.588L.268 3.025A4.458 4.458 0 0 0 0 4.5 4.5 4.5 0 0 0 4.5 9c.5 0 .972-.102 1.421-.251l5.667 5.665a2 2 0 1 0 2.828-2.828z"/>
</symbol>
<symbol id="wrench-white"><path fill="#FFF" d="M14.416 11.586l-.01-.008v-.001L8.75 5.921c.15-.449.252-.921.252-1.421C9.002 2.015 6.986 0 4.5 0c-.505 0-.981.102-1.434.255l2.431 2.431-.588 2.196-2.196.588L.268 3.025A4.458 4.458 0 0 0 0 4.5 4.5 4.5 0 0 0 4.5 9c.5 0 .972-.102 1.421-.251l5.667 5.665a2 2 0 1 0 2.828-2.828z"/>
</symbol></svg>