<?xml version="1.0" encoding="utf-8"?>
<svg xmlns="http://www.w3.org/2000/svg">
<symbol id="caret-down"><path fill="#333" d="M3.8 5.4c-.165-.22-.075-.4.2-.4h8.002c.275 0 .365.18.199.4l-3.898 5.2c-.166.221-.436.221-.6 0L3.8 5.4z"/>
</symbol>
<symbol id="chevron-disc-left"><path fill="#bebebe" d="M8.002 1a7 7 0 1 0 0 14 7 7 0 1 0 0-14zm2.348 10.482l-.977.977a.504.504 0 0 1-.707 0L4.558 8.354a.503.503 0 0 1 0-.708l4.108-4.105a.502.502 0 0 1 .707 0l.979.977a.508.508 0 0 1 0 .707L7.93 7.646a.502.502 0 0 0 0 .708l2.419 2.421a.5.5 0 0 1 .001.707z"/>
</symbol>
<symbol id="chevron-disc-right"><path fill="#bebebe" d="M8.002 1A7.001 7.001 0 1 0 8 15.002 7.001 7.001 0 0 0 8.002 1zm3.441 7.357l-4.106 4.104a.509.509 0 0 1-.708 0l-.978-.979a.502.502 0 0 1 0-.707l2.423-2.421a.502.502 0 0 0 0-.708L5.652 5.225a.502.502 0 0 1 0-.707l.977-.977a.503.503 0 0 1 .708 0l4.106 4.108a.509.509 0 0 1 0 .708z"/>
</symbol>
<symbol id="chevron-left-white"><path fill="#FFF" d="M7.951 7.645a.508.508 0 0 0 0 .71l3.258 3.29a.506.506 0 0 1-.002.709l-1.371 1.371a.507.507 0 0 1-.707 0L3.794 8.354a.503.503 0 0 1 0-.708l5.335-5.369a.501.501 0 0 1 .707-.001l1.371 1.371a.506.506 0 0 1 .002.709L7.951 7.645z"/>
</symbol>
<symbol id="chevron-left"><path fill="#0074bd" d="M7.951 7.645a.508.508 0 0 0 0 .71l3.258 3.29a.506.506 0 0 1-.002.709l-1.371 1.371a.507.507 0 0 1-.707 0L3.794 8.354a.503.503 0 0 1 0-.708l5.335-5.369a.501.501 0 0 1 .707-.001l1.371 1.371a.506.506 0 0 1 .002.709L7.951 7.645z"/>
</symbol>
<symbol id="chevron-right-white"><path fill="#FFF" d="M8.053 8.355a.509.509 0 0 0 0-.711l-3.26-3.289a.506.506 0 0 1 .002-.709l1.371-1.371a.501.501 0 0 1 .706.001l5.335 5.369a.502.502 0 0 1 0 .708l-5.335 5.37a.506.506 0 0 1-.706.002l-1.371-1.371a.506.506 0 0 1-.002-.709l3.26-3.29z"/>
</symbol>
<symbol id="chevron-right"><path fill="#0074bd" d="M8.053 8.355a.509.509 0 0 0 0-.711l-3.26-3.289a.506.506 0 0 1 .002-.709l1.371-1.371a.501.501 0 0 1 .706.001l5.335 5.369a.502.502 0 0 1 0 .708l-5.335 5.37a.506.506 0 0 1-.706.002l-1.371-1.371a.506.506 0 0 1-.002-.709l3.26-3.29z"/>
</symbol>
<symbol id="error"><path d="M8.002 1a7 7 0 1 0 0 14 7 7 0 0 0 0-14zm4.025 9.284c.062.063.1.149.1.239a.34.34 0 0 1-.1.24l-1.262 1.262a.34.34 0 0 1-.48 0L8.002 9.742l-2.286 2.283a.34.34 0 0 1-.48 0l-1.261-1.262a.336.336 0 0 1 0-.478L6.258 8 3.975 5.716a.34.34 0 0 1 0-.48l1.262-1.262a.34.34 0 0 1 .48 0l2.285 2.284 2.283-2.284a.34.34 0 0 1 .48 0l1.262 1.262c.062.063.1.149.1.24a.345.345 0 0 1-.1.24L9.744 8l2.283 2.284z"/>
</symbol>
<symbol id="ex"><path fill="#fff" d="M3.51 13.925a.501.501 0 0 0 .706.001l3.432-3.431a.503.503 0 0 1 .708 0l3.432 3.431a.502.502 0 0 0 .707-.001l1.405-1.417a.51.51 0 0 0-.002-.709l-3.397-3.4a.509.509 0 0 1-.002-.708l3.401-3.43a.514.514 0 0 0 0-.709l-1.407-1.418a.501.501 0 0 0-.707-.001l-3.43 3.431a.503.503 0 0 1-.708 0L4.216 2.133a.5.5 0 0 0-.706.001L2.103 3.551a.506.506 0 0 0 0 .71L5.506 7.69a.504.504 0 0 1-.001.708l-3.4 3.399a.505.505 0 0 0-.001.709l1.406 1.419z"/>
</symbol>
<symbol id="required"><path fill="#E00" d="M0 7.562l1.114-3.438c2.565.906 4.43 1.688 5.59 2.35-.306-2.921-.467-4.93-.484-6.027h3.511c-.05 1.597-.234 3.6-.558 6.003 1.664-.838 3.566-1.613 5.714-2.325L16 7.562c-2.05.678-4.06 1.131-6.028 1.356.984.856 2.372 2.381 4.166 4.575l-2.906 2.059c-.935-1.274-2.041-3.009-3.316-5.206-1.194 2.275-2.244 4.013-3.147 5.206l-2.856-2.059c1.872-2.307 3.211-3.832 4.017-4.575A86.77 86.77 0 0 1 0 7.562"/>
</symbol>
<symbol id="twistie-down-dark"><path fill="#004875" d="M2.611 5.393C2.441 5.177 2.527 5 2.802 5h10.397c.275 0 .361.177.191.393l-5.08 6.464c-.17.216-.452.216-.622 0L2.611 5.393z"/>
</symbol>
<symbol id="twistie-down-light"><path fill="#008ee6" d="M2.611 5.393C2.441 5.177 2.527 5 2.802 5h10.397c.275 0 .361.177.191.393l-5.08 6.464c-.17.216-.452.216-.622 0L2.611 5.393z"/>
</symbol>
<symbol id="twistie-down"><path fill="#008ee6" d="M2.611 5.393C2.441 5.177 2.527 5 2.802 5h10.397c.275 0 .361.177.191.393l-5.08 6.464c-.17.216-.452.216-.622 0L2.611 5.393z"/>
</symbol>
<symbol id="twistie-up-dark"><path fill="#004875" d="M13.391 10.607c.17.216.084.393-.191.393H2.802c-.275 0-.361-.177-.191-.393l5.08-6.464c.17-.216.45-.216.62 0l5.08 6.464z"/>
</symbol>
<symbol id="twistie-up-light"><path fill="#008ee6" d="M13.391 10.607c.17.216.084.393-.191.393H2.802c-.275 0-.361-.177-.191-.393l5.08-6.464c.17-.216.45-.216.62 0l5.08 6.464z"/>
</symbol>
<symbol id="twistie-up"><path fill="#008ee6" d="M13.391 10.607c.17.216.084.393-.191.393H2.802c-.275 0-.361-.177-.191-.393l5.08-6.464c.17-.216.45-.216.62 0l5.08 6.464z"/>
</symbol></svg>