<?xml version="1.0" encoding="utf-8"?>
<svg xmlns="http://www.w3.org/2000/svg">
<symbol id="caret-down"><path fill="#333" d="M3.8 5.4c-.165-.22-.075-.4.2-.4h8.002c.275 0 .365.18.199.4l-3.898 5.2c-.166.221-.436.221-.6 0L3.8 5.4z"/>
</symbol>
<symbol id="chevron-left-white"><path fill="#FFF" d="M7.951 7.645a.508.508 0 0 0 0 .71l3.258 3.29a.506.506 0 0 1-.002.709l-1.371 1.371a.507.507 0 0 1-.707 0L3.794 8.354a.503.503 0 0 1 0-.708l5.335-5.369a.501.501 0 0 1 .707-.001l1.371 1.371a.506.506 0 0 1 .002.709L7.951 7.645z"/>
</symbol>
<symbol id="chevron-left"><path fill="#0074bd" d="M7.951 7.645a.508.508 0 0 0 0 .71l3.258 3.29a.506.506 0 0 1-.002.709l-1.371 1.371a.507.507 0 0 1-.707 0L3.794 8.354a.503.503 0 0 1 0-.708l5.335-5.369a.501.501 0 0 1 .707-.001l1.371 1.371a.506.506 0 0 1 .002.709L7.951 7.645z"/>
</symbol>
<symbol id="chevron-right-white"><path fill="#FFF" d="M8.053 8.355a.509.509 0 0 0 0-.711l-3.26-3.289a.506.506 0 0 1 .002-.709l1.371-1.371a.501.501 0 0 1 .706.001l5.335 5.369a.502.502 0 0 1 0 .708l-5.335 5.37a.506.506 0 0 1-.706.002l-1.371-1.371a.506.506 0 0 1-.002-.709l3.26-3.29z"/>
</symbol>
<symbol id="chevron-right"><path fill="#0074bd" d="M8.053 8.355a.509.509 0 0 0 0-.711l-3.26-3.289a.506.506 0 0 1 .002-.709l1.371-1.371a.501.501 0 0 1 .706.001l5.335 5.369a.502.502 0 0 1 0 .708l-5.335 5.37a.506.506 0 0 1-.706.002l-1.371-1.371a.506.506 0 0 1-.002-.709l3.26-3.29z"/>
</symbol></svg>