<?xml version="1.0" encoding="utf-8"?>
<svg xmlns="http://www.w3.org/2000/svg">
<symbol id="caret-down"><path fill="#333" d="M3.8 5.4c-.165-.22-.075-.4.2-.4h8.002c.275 0 .365.18.199.4l-3.898 5.2c-.166.221-.436.221-.6 0L3.8 5.4z"/>
</symbol>
<symbol id="chevron-left-white"><path fill="#FFF" d="M7.951 7.645a.508.508 0 0 0 0 .71l3.258 3.29a.506.506 0 0 1-.002.709l-1.371 1.371a.507.507 0 0 1-.707 0L3.794 8.354a.503.503 0 0 1 0-.708l5.335-5.369a.501.501 0 0 1 .707-.001l1.371 1.371a.506.506 0 0 1 .002.709L7.951 7.645z"/>
</symbol>
<symbol id="chevron-left"><path fill="#0074bd" d="M7.951 7.645a.508.508 0 0 0 0 .71l3.258 3.29a.506.506 0 0 1-.002.709l-1.371 1.371a.507.507 0 0 1-.707 0L3.794 8.354a.503.503 0 0 1 0-.708l5.335-5.369a.501.501 0 0 1 .707-.001l1.371 1.371a.506.506 0 0 1 .002.709L7.951 7.645z"/>
</symbol>
<symbol id="chevron-right-white"><path fill="#FFF" d="M8.053 8.355a.509.509 0 0 0 0-.711l-3.26-3.289a.506.506 0 0 1 .002-.709l1.371-1.371a.501.501 0 0 1 .706.001l5.335 5.369a.502.502 0 0 1 0 .708l-5.335 5.37a.506.506 0 0 1-.706.002l-1.371-1.371a.506.506 0 0 1-.002-.709l3.26-3.29z"/>
</symbol>
<symbol id="chevron-right"><path fill="#0074bd" d="M8.053 8.355a.509.509 0 0 0 0-.711l-3.26-3.289a.506.506 0 0 1 .002-.709l1.371-1.371a.501.501 0 0 1 .706.001l5.335 5.369a.502.502 0 0 1 0 .708l-5.335 5.37a.506.506 0 0 1-.706.002l-1.371-1.371a.506.506 0 0 1-.002-.709l3.26-3.29z"/>
</symbol>
<symbol id="error"><path d="M8.002 1a7 7 0 1 0 0 14 7 7 0 0 0 0-14zm4.025 9.284c.062.063.1.149.1.239a.34.34 0 0 1-.1.24l-1.262 1.262a.34.34 0 0 1-.48 0L8.002 9.742l-2.286 2.283a.34.34 0 0 1-.48 0l-1.261-1.262a.336.336 0 0 1 0-.478L6.258 8 3.975 5.716a.34.34 0 0 1 0-.48l1.262-1.262a.34.34 0 0 1 .48 0l2.285 2.284 2.283-2.284a.34.34 0 0 1 .48 0l1.262 1.262c.062.063.1.149.1.24a.345.345 0 0 1-.1.24L9.744 8l2.283 2.284z"/>
</symbol>
<symbol id="required"><path fill="#E00" d="M0 7.562l1.114-3.438c2.565.906 4.43 1.688 5.59 2.35-.306-2.921-.467-4.93-.484-6.027h3.511c-.05 1.597-.234 3.6-.558 6.003 1.664-.838 3.566-1.613 5.714-2.325L16 7.562c-2.05.678-4.06 1.131-6.028 1.356.984.856 2.372 2.381 4.166 4.575l-2.906 2.059c-.935-1.274-2.041-3.009-3.316-5.206-1.194 2.275-2.244 4.013-3.147 5.206l-2.856-2.059c1.872-2.307 3.211-3.832 4.017-4.575A86.77 86.77 0 0 1 0 7.562"/>
</symbol></svg>